<svg xmlns="http://www.w3.org/2000/svg" viewBox="0 0 176.9 176.9"><title>mobile-black</title><path d="M64.49,84.8V78.22a10.08,10.08,0,0,0-3.44-7.6L57,67a10,10,0,0,0-6.5-2.39H15.78A5.37,5.37,0,0,0,12,66.25a5.48,5.48,0,0,0-1.58,3.85V82.52a1.44,1.44,0,0,0,.4,1,1.34,1.34,0,0,0,1,.39h4.89a1.34,1.34,0,0,1,.94.4,1.38,1.38,0,0,1,.39,1v4.93a1.38,1.38,0,0,1-.39,1,1.33,1.33,0,0,1-.94.39H11.74a1.35,1.35,0,0,0-1,.4,1.39,1.39,0,0,0-.4,1v17.86H59.15a13.44,13.44,0,0,0,9.28-3.58,13.35,13.35,0,0,0,2.35-17A13.44,13.44,0,0,0,64.49,84.8ZM18,72.33H50.5a2.26,2.26,0,0,1,1.51.58l4.07,3.58a2.35,2.35,0,0,1,.59.8,2.38,2.38,0,0,1,.22,1v5.61H19.33a1.34,1.34,0,0,1-.94-.4,1.38,1.38,0,0,1-.39-1ZM59.34,103H18V92.88a1.37,1.37,0,0,1,1.33-1.37H59.49a5.58,5.58,0,0,1,2.31.5,5.83,5.83,0,0,1,1.91,1.4,5.89,5.89,0,0,1,1.18,2.06,5.78,5.78,0,0,1,.26,2.37A5.94,5.94,0,0,1,59.3,103Z"/><path d="M166.51,65.9H139.92a1.28,1.28,0,0,0-.51.09,1.32,1.32,0,0,0-.44.3,1.35,1.35,0,0,0-.29.44,1.29,1.29,0,0,0-.1.51v3.59a.9.9,0,0,1-.17.53,1,1,0,0,1-.44.35,1,1,0,0,1-.56,0,1,1,0,0,1-.46-.3l-1.76-2.17a9.15,9.15,0,0,0-3.1-2.42,8.81,8.81,0,0,0-3.81-.86H106.49v7.68h21.75a1.44,1.44,0,0,1,.58.13,1.63,1.63,0,0,1,.46.37l4.05,5a1.36,1.36,0,0,1,.31.87v32.25h7.6V80a9.07,9.07,0,0,0-2.05-5.77.32.32,0,0,1-.08-.2.41.41,0,0,1,0-.22.35.35,0,0,1,.15-.17.37.37,0,0,1,.21-.06h27Z"/><path d="M96.55,112.2H89V73.57h-.81L80.4,77.48,77,70.6l8.43-4.25a4.22,4.22,0,0,1,1.94-.45h5a4.09,4.09,0,0,1,2.91,1.21,4.19,4.19,0,0,1,1.2,2.94Z"/></svg>