<svg xmlns="http://www.w3.org/2000/svg" viewBox="0 0 176.9 176.9"><title>desktop-white</title><path d="M27.4,87.07V84.58A3.94,3.94,0,0,0,27.06,83a4.07,4.07,0,0,0-1-1.29l-1.54-1.35a3.77,3.77,0,0,0-2.45-.91H9a2.07,2.07,0,0,0-2,2.06v4.7a.51.51,0,0,0,.51.51H9.31a.47.47,0,0,1,.35.15.51.51,0,0,1,.15.36V89.1a.51.51,0,0,1-.5.51H7.46a.51.51,0,0,0-.36.15.51.51,0,0,0-.15.36v6.75H25.38a5.09,5.09,0,0,0,4.39-7.8A5,5,0,0,0,27.4,87.07ZM9.83,82.36H22.11a.86.86,0,0,1,.57.21l1.54,1.36a.93.93,0,0,1,.22.3,1,1,0,0,1,.09.37v2.12H10.33a.51.51,0,0,1-.36-.15.54.54,0,0,1-.14-.36ZM25.45,94H9.83V90.12a.54.54,0,0,1,.14-.36.51.51,0,0,1,.36-.15H25.51a2.19,2.19,0,0,1,.87.18,2.19,2.19,0,0,1,1.17,1.31,2.11,2.11,0,0,1-.65,2.3,2.17,2.17,0,0,1-1.46.55Z" fill="#fff"/><path d="M114.49,82.83V79.92H95a2,2,0,0,0-1.44.61A2.05,2.05,0,0,0,93,82v13.3a2.09,2.09,0,0,0,.6,1.45,2,2,0,0,0,1.44.6h19.47v-2.9H95.86V89.81h18.63v-2.9H95.86V82.84Z" fill="#fff"/><path d="M66,79.92h-10a.65.65,0,0,0-.2,0,.46.46,0,0,0-.16.11.45.45,0,0,0-.11.17.43.43,0,0,0,0,.19v1.36a.36.36,0,0,1-.06.2.36.36,0,0,1-.17.13.3.3,0,0,1-.21,0,.36.36,0,0,1-.18-.12l-.66-.81A3.49,3.49,0,0,0,53,80.28,3.43,3.43,0,0,0,51.51,80H43.27v2.9h8.22a.54.54,0,0,1,.22,0,.39.39,0,0,1,.17.14l1.54,1.88a.55.55,0,0,1,.11.33V97.44h2.88V85.24a3.44,3.44,0,0,0-.78-2.18.13.13,0,0,1,0-.08.19.19,0,0,1,0-.08.13.13,0,0,1,.06-.07l.08,0H65.94Z" fill="#fff"/><path d="M90.07,97.33h-19a2,2,0,0,1-1.43-.6,2,2,0,0,1-.6-1.44V79.89h2.87V94.43H90.07Z" fill="#fff"/><path d="M167.52,97.33H148.07a2,2,0,0,1-1.44-.6,2.09,2.09,0,0,1-.6-1.45V82a2.05,2.05,0,0,1,.6-1.45,2,2,0,0,1,1.44-.61h13.8a4.92,4.92,0,0,1,3.27,1.25L168.26,84a4.94,4.94,0,0,1,1.22,1.67,5.07,5.07,0,0,1,.43,2v7.19a2.44,2.44,0,0,1-.7,1.72A2.37,2.37,0,0,1,167.52,97.33Zm-18.61-2.9H167V87.71a2,2,0,0,0-.18-.84,2,2,0,0,0-.5-.7l-3.13-2.82a2,2,0,0,0-1.33-.52h-13Z" fill="#fff"/><path d="M39.52,97.43H36.64V82.83h-.3L33.41,84.3l-1.28-2.6,3.19-1.6a1.58,1.58,0,0,1,.73-.18H38a1.57,1.57,0,0,1,1.1.46,1.62,1.62,0,0,1,.46,1.12Z" fill="#fff"/><path d="M139.21,79.89v16L129.9,82.34a5.47,5.47,0,0,0-4.55-2.4h-3.71a.51.51,0,0,0-.51.51v1.88a.51.51,0,0,1-.15.36.56.56,0,0,1-.35.15h-1.86a.51.51,0,0,0-.36.15.51.51,0,0,0-.15.36v14h2.88v-14a.5.5,0,0,1,.5-.52h3.71a2.68,2.68,0,0,1,1.24.31,2.59,2.59,0,0,1,1,.85l8.93,13a.73.73,0,0,0,.29.26.86.86,0,0,0,.38.1h4.14a.82.82,0,0,0,.81-.83V79.89Z" fill="#fff"/></svg>